name ./resultDataOpenSim/trcMotMarkerGrf/sub10/grf-01-04.mot
datacolumns 19
datarows 27
range 0.46400000 0.56800000
endheader

                time	     ground_force_vx	     ground_force_vy	     ground_force_vz	     ground_force_px	     ground_force_py	     ground_force_pz	   l_ground_force_vx	   l_ground_force_vy	   l_ground_force_vz	   l_ground_force_px	   l_ground_force_py	   l_ground_force_pz	     ground_torque_x	     ground_torque_y	     ground_torque_z	   l_ground_torque_x	   l_ground_torque_y	   l_ground_torque_z	
          0.46400000	         27.42394790	        445.10125759	        -25.41010419	         -0.78421014	          0.00000000	          0.00721663	          0.00000000	          0.00000000	          0.00000000	          0.00000000	          0.00000000	          0.00000000	          0.00000000	          2.86883756	          0.00000000	          0.00000000	          0.00000000	          0.00000000	
          0.46800000	         30.42554470	        454.86641387	        -25.79650727	         -0.78351130	          0.00000000	          0.00685676	          0.00000000	          0.00000000	          0.00000000	          0.00000000	          0.00000000	          0.00000000	          0.00000000	          3.12982155	          0.00000000	          0.00000000	          0.00000000	          0.00000000	
          0.47200000	         33.51148915	        465.08919316	        -26.75692193	         -0.78269387	          0.00000000	          0.00649956	          0.00000000	          0.00000000	          0.00000000	          0.00000000	          0.00000000	          0.00000000	          0.00000000	          3.34350617	          0.00000000	          0.00000000	          0.00000000	          0.00000000	
          0.47600000	         36.64162384	        475.72475861	        -28.26520466	         -0.78174715	          0.00000000	          0.00615335	          0.00000000	          0.00000000	          0.00000000	          0.00000000	          0.00000000	          0.00000000	          0.00000000	          3.50700763	          0.00000000	          0.00000000	          0.00000000	          0.00000000	
          0.48000000	         39.82320491	        486.76827804	        -30.18960948	         -0.78067234	          0.00000000	          0.00581728	          0.00000000	          0.00000000	          0.00000000	          0.00000000	          0.00000000	          0.00000000	          0.00000000	          3.62706334	          0.00000000	          0.00000000	          0.00000000	          0.00000000	
          0.48400000	         43.09528944	        498.24404121	        -32.33046075	         -0.77948497	          0.00000000	          0.00548739	          0.00000000	          0.00000000	          0.00000000	          0.00000000	          0.00000000	          0.00000000	          0.00000000	          3.71798765	          0.00000000	          0.00000000	          0.00000000	          0.00000000	
          0.48800000	         46.50010402	        510.19613233	        -34.46641388	         -0.77819489	          0.00000000	          0.00515971	          0.00000000	          0.00000000	          0.00000000	          0.00000000	          0.00000000	          0.00000000	          0.00000000	          3.79783717	          0.00000000	          0.00000000	          0.00000000	          0.00000000	
          0.49200000	         50.05792142	        522.68106616	        -36.40119245	         -0.77679658	          0.00000000	          0.00483185	          0.00000000	          0.00000000	          0.00000000	          0.00000000	          0.00000000	          0.00000000	          0.00000000	          3.88361204	          0.00000000	          0.00000000	          0.00000000	          0.00000000	
          0.49600000	         53.75534963	        535.75958057	        -38.00430280	         -0.77528550	          0.00000000	          0.00450048	          0.00000000	          0.00000000	          0.00000000	          0.00000000	          0.00000000	          0.00000000	          0.00000000	          3.98664677	          0.00000000	          0.00000000	          0.00000000	          0.00000000	
          0.50000000	         57.54265062	        549.49526975	        -39.23878480	         -0.77366228	          0.00000000	          0.00416271	          0.00000000	          0.00000000	          0.00000000	          0.00000000	          0.00000000	          0.00000000	          0.00000000	          4.10934884	          0.00000000	          0.00000000	          0.00000000	          0.00000000	
          0.50400000	         61.33757797	        563.96021824	        -40.16897882	         -0.77193310	          0.00000000	          0.00381304	          0.00000000	          0.00000000	          0.00000000	          0.00000000	          0.00000000	          0.00000000	          0.00000000	          4.24412575	          0.00000000	          0.00000000	          0.00000000	          0.00000000	
          0.50800000	         65.04247814	        579.22888016	        -40.94340001	         -0.77011339	          0.00000000	          0.00344821	          0.00000000	          0.00000000	          0.00000000	          0.00000000	          0.00000000	          0.00000000	          0.00000000	          4.37478420	          0.00000000	          0.00000000	          0.00000000	          0.00000000	
          0.51200000	         68.57501186	        595.35737425	        -41.75518702	         -0.76821130	          0.00000000	          0.00306360	          0.00000000	          0.00000000	          0.00000000	          0.00000000	          0.00000000	          0.00000000	          0.00000000	          4.48003872	          0.00000000	          0.00000000	          0.00000000	          0.00000000	
          0.51600000	         71.89851030	        612.36929907	        -42.78948341	         -0.76624394	          0.00000000	          0.00265218	          0.00000000	          0.00000000	          0.00000000	          0.00000000	          0.00000000	          0.00000000	          0.00000000	          4.53827980	          0.00000000	          0.00000000	          0.00000000	          0.00000000	
          0.52000000	         75.03762972	        630.25960840	        -44.17021144	         -0.76424402	          0.00000000	          0.00220446	          0.00000000	          0.00000000	          0.00000000	          0.00000000	          0.00000000	          0.00000000	          0.00000000	          4.53259409	          0.00000000	          0.00000000	          0.00000000	          0.00000000	
          0.52400000	         78.07656752	        649.00347375	        -45.92057788	         -0.76225449	          0.00000000	          0.00171297	          0.00000000	          0.00000000	          0.00000000	          0.00000000	          0.00000000	          0.00000000	          0.00000000	          4.45510461	          0.00000000	          0.00000000	          0.00000000	          0.00000000	
          0.52800000	         81.14433951	        668.55560072	        -47.94712585	         -0.76031760	          0.00000000	          0.00117259	          0.00000000	          0.00000000	          0.00000000	          0.00000000	          0.00000000	          0.00000000	          0.00000000	          4.30982942	          0.00000000	          0.00000000	          0.00000000	          0.00000000	
          0.53200000	         84.39165790	        688.84225463	        -50.04631665	         -0.75847301	          0.00000000	          0.00057767	          0.00000000	          0.00000000	          0.00000000	          0.00000000	          0.00000000	          0.00000000	          0.00000000	          4.11341515	          0.00000000	          0.00000000	          0.00000000	          0.00000000	
          0.53600000	         87.96223089	        709.74597030	        -51.92683967	         -0.75675547	          0.00000000	         -0.00007710	          0.00000000	          0.00000000	          0.00000000	          0.00000000	          0.00000000	          0.00000000	          0.00000000	          3.89338142	          0.00000000	          0.00000000	          0.00000000	          0.00000000	
          0.54000000	         91.96116253	        731.08126528	        -53.24474823	         -0.75518729	          0.00000000	         -0.00079810	          0.00000000	          0.00000000	          0.00000000	          0.00000000	          0.00000000	          0.00000000	          0.00000000	          3.68397134	          0.00000000	          0.00000000	          0.00000000	          0.00000000	
          0.54400000	         96.42718296	        752.57926834	        -53.65461401	         -0.75377632	          0.00000000	         -0.00159498	          0.00000000	          0.00000000	          0.00000000	          0.00000000	          0.00000000	          0.00000000	          0.00000000	          3.52026002	          0.00000000	          0.00000000	          0.00000000	          0.00000000	
          0.54800000	        101.32216676	        773.90347270	        -52.87826961	         -0.75251417	          0.00000000	         -0.00247837	          0.00000000	          0.00000000	          0.00000000	          0.00000000	          0.00000000	          0.00000000	          0.00000000	          3.43164858	          0.00000000	          0.00000000	          0.00000000	          0.00000000	
          0.55200000	        106.55194084	        794.69237634	        -50.77760790	         -0.75137619	          0.00000000	         -0.00345204	          0.00000000	          0.00000000	          0.00000000	          0.00000000	          0.00000000	          0.00000000	          0.00000000	          3.43611161	          0.00000000	          0.00000000	          0.00000000	          0.00000000	
          0.55600000	        112.01541046	        814.59844740	        -47.40100641	         -0.75033366	          0.00000000	         -0.00450525	          0.00000000	          0.00000000	          0.00000000	          0.00000000	          0.00000000	          0.00000000	          0.00000000	          3.53648026	          0.00000000	          0.00000000	          0.00000000	          0.00000000	
          0.56000000	        117.65253686	        833.30387788	        -42.98126544	         -0.74936677	          0.00000000	         -0.00561169	          0.00000000	          0.00000000	          0.00000000	          0.00000000	          0.00000000	          0.00000000	          0.00000000	          3.71960763	          0.00000000	          0.00000000	          0.00000000	          0.00000000	
          0.56400000	        123.45940585	        850.52443513	        -37.89132399	         -0.74846765	          0.00000000	         -0.00673825	          0.00000000	          0.00000000	          0.00000000	          0.00000000	          0.00000000	          0.00000000	          0.00000000	          3.95858110	          0.00000000	          0.00000000	          0.00000000	          0.00000000	
          0.56800000	        129.47133777	        866.01208530	        -32.57650711	         -0.74763561	          0.00000000	         -0.00785463	          0.00000000	          0.00000000	          0.00000000	          0.00000000	          0.00000000	          0.00000000	          0.00000000	          4.21745579	          0.00000000	          0.00000000	          0.00000000	          0.00000000	
